<mxfile host="www.draw.io" modified="2020-02-18T01:13:40.684Z" agent="Mozilla/5.0 (Macintosh; Intel Mac OS X 10_14_6) AppleWebKit/537.36 (KHTML, like Gecko) Chrome/79.0.3945.130 Safari/537.36" etag="T9NNYx7n9OsiIME8Gt6m" version="12.7.1" type="github">
  <diagram name="Page-1" id="e7e014a7-5840-1c2e-5031-d8a46d1fe8dd">
    <mxGraphModel dx="1186" dy="511" grid="1" gridSize="10" guides="1" tooltips="1" connect="1" arrows="1" fold="1" page="1" pageScale="1" pageWidth="1169" pageHeight="826" background="#ffffff" math="0" shadow="0">
      <root>
        <mxCell id="0" />
        <mxCell id="1" parent="0" />
        <mxCell id="CfPCjCr6cY2V00UDqMTe-64" style="edgeStyle=orthogonalEdgeStyle;rounded=0;orthogonalLoop=1;jettySize=auto;html=1;exitX=0.5;exitY=0.5;exitDx=0;exitDy=0;exitPerimeter=0;" edge="1" parent="1" source="CfPCjCr6cY2V00UDqMTe-41" target="CfPCjCr6cY2V00UDqMTe-53">
          <mxGeometry relative="1" as="geometry">
            <Array as="points">
              <mxPoint x="200" y="240" />
              <mxPoint x="200" y="185" />
            </Array>
          </mxGeometry>
        </mxCell>
        <mxCell id="CfPCjCr6cY2V00UDqMTe-65" style="edgeStyle=orthogonalEdgeStyle;rounded=0;orthogonalLoop=1;jettySize=auto;html=1;" edge="1" parent="1" source="CfPCjCr6cY2V00UDqMTe-41" target="CfPCjCr6cY2V00UDqMTe-57">
          <mxGeometry relative="1" as="geometry">
            <Array as="points">
              <mxPoint x="200" y="240" />
              <mxPoint x="200" y="265" />
            </Array>
          </mxGeometry>
        </mxCell>
        <mxCell id="CfPCjCr6cY2V00UDqMTe-67" style="edgeStyle=orthogonalEdgeStyle;rounded=0;orthogonalLoop=1;jettySize=auto;html=1;entryX=0;entryY=0.5;entryDx=0;entryDy=0;" edge="1" parent="1" source="CfPCjCr6cY2V00UDqMTe-41" target="CfPCjCr6cY2V00UDqMTe-58">
          <mxGeometry relative="1" as="geometry">
            <Array as="points">
              <mxPoint x="200" y="240" />
              <mxPoint x="200" y="345" />
            </Array>
          </mxGeometry>
        </mxCell>
        <mxCell id="CfPCjCr6cY2V00UDqMTe-41" value="Guest" style="shape=umlActor;verticalLabelPosition=bottom;labelBackgroundColor=#ffffff;verticalAlign=top;html=1;" vertex="1" parent="1">
          <mxGeometry x="120" y="210" width="30" height="60" as="geometry" />
        </mxCell>
        <mxCell id="CfPCjCr6cY2V00UDqMTe-66" style="edgeStyle=orthogonalEdgeStyle;rounded=0;orthogonalLoop=1;jettySize=auto;html=1;entryX=0;entryY=0.5;entryDx=0;entryDy=0;" edge="1" parent="1" source="CfPCjCr6cY2V00UDqMTe-42" target="CfPCjCr6cY2V00UDqMTe-53">
          <mxGeometry relative="1" as="geometry">
            <Array as="points">
              <mxPoint x="260" y="440" />
              <mxPoint x="260" y="185" />
            </Array>
          </mxGeometry>
        </mxCell>
        <mxCell id="CfPCjCr6cY2V00UDqMTe-68" style="edgeStyle=orthogonalEdgeStyle;rounded=0;orthogonalLoop=1;jettySize=auto;html=1;entryX=0;entryY=0.5;entryDx=0;entryDy=0;exitX=0;exitY=0.5;exitDx=0;exitDy=0;" edge="1" parent="1" source="CfPCjCr6cY2V00UDqMTe-60" target="CfPCjCr6cY2V00UDqMTe-57">
          <mxGeometry relative="1" as="geometry">
            <Array as="points">
              <mxPoint x="260" y="505" />
              <mxPoint x="260" y="265" />
            </Array>
          </mxGeometry>
        </mxCell>
        <mxCell id="CfPCjCr6cY2V00UDqMTe-69" style="edgeStyle=orthogonalEdgeStyle;rounded=0;orthogonalLoop=1;jettySize=auto;html=1;" edge="1" parent="1" source="CfPCjCr6cY2V00UDqMTe-42" target="CfPCjCr6cY2V00UDqMTe-59">
          <mxGeometry relative="1" as="geometry">
            <Array as="points">
              <mxPoint x="260" y="440" />
              <mxPoint x="260" y="425" />
            </Array>
          </mxGeometry>
        </mxCell>
        <mxCell id="CfPCjCr6cY2V00UDqMTe-70" style="edgeStyle=orthogonalEdgeStyle;rounded=0;orthogonalLoop=1;jettySize=auto;html=1;entryX=0;entryY=0.5;entryDx=0;entryDy=0;" edge="1" parent="1" source="CfPCjCr6cY2V00UDqMTe-42" target="CfPCjCr6cY2V00UDqMTe-61">
          <mxGeometry relative="1" as="geometry">
            <Array as="points">
              <mxPoint x="260" y="440" />
              <mxPoint x="260" y="585" />
            </Array>
          </mxGeometry>
        </mxCell>
        <mxCell id="CfPCjCr6cY2V00UDqMTe-73" style="edgeStyle=orthogonalEdgeStyle;rounded=0;orthogonalLoop=1;jettySize=auto;html=1;" edge="1" parent="1" source="CfPCjCr6cY2V00UDqMTe-42" target="CfPCjCr6cY2V00UDqMTe-60">
          <mxGeometry relative="1" as="geometry">
            <Array as="points">
              <mxPoint x="260" y="440" />
              <mxPoint x="260" y="505" />
            </Array>
          </mxGeometry>
        </mxCell>
        <mxCell id="CfPCjCr6cY2V00UDqMTe-42" value="Registered" style="shape=umlActor;verticalLabelPosition=bottom;labelBackgroundColor=#ffffff;verticalAlign=top;html=1;" vertex="1" parent="1">
          <mxGeometry x="120" y="410" width="30" height="60" as="geometry" />
        </mxCell>
        <mxCell id="CfPCjCr6cY2V00UDqMTe-44" value="Agent" style="shape=umlActor;verticalLabelPosition=bottom;labelBackgroundColor=#ffffff;verticalAlign=top;html=1;" vertex="1" parent="1">
          <mxGeometry x="720" y="180" width="30" height="60" as="geometry" />
        </mxCell>
        <mxCell id="CfPCjCr6cY2V00UDqMTe-45" value="AllPaid" style="shape=umlActor;verticalLabelPosition=bottom;labelBackgroundColor=#ffffff;verticalAlign=top;html=1;" vertex="1" parent="1">
          <mxGeometry x="670" y="400" width="30" height="60" as="geometry" />
        </mxCell>
        <mxCell id="CfPCjCr6cY2V00UDqMTe-52" value="Find Agency" style="ellipse;whiteSpace=wrap;html=1;" vertex="1" parent="1">
          <mxGeometry x="300" y="70" width="140" height="70" as="geometry" />
        </mxCell>
        <mxCell id="CfPCjCr6cY2V00UDqMTe-53" value="Submit Payment" style="ellipse;whiteSpace=wrap;html=1;" vertex="1" parent="1">
          <mxGeometry x="300" y="150" width="140" height="70" as="geometry" />
        </mxCell>
        <mxCell id="CfPCjCr6cY2V00UDqMTe-57" value="Verify Payment" style="ellipse;whiteSpace=wrap;html=1;" vertex="1" parent="1">
          <mxGeometry x="300" y="230" width="140" height="70" as="geometry" />
        </mxCell>
        <mxCell id="CfPCjCr6cY2V00UDqMTe-58" value="Confirm Payment" style="ellipse;whiteSpace=wrap;html=1;" vertex="1" parent="1">
          <mxGeometry x="300" y="310" width="140" height="70" as="geometry" />
        </mxCell>
        <mxCell id="CfPCjCr6cY2V00UDqMTe-59" value="Authorize" style="ellipse;whiteSpace=wrap;html=1;" vertex="1" parent="1">
          <mxGeometry x="300" y="390" width="140" height="70" as="geometry" />
        </mxCell>
        <mxCell id="CfPCjCr6cY2V00UDqMTe-60" value="Setup Recurring Payments" style="ellipse;whiteSpace=wrap;html=1;" vertex="1" parent="1">
          <mxGeometry x="300" y="470" width="140" height="70" as="geometry" />
        </mxCell>
        <mxCell id="CfPCjCr6cY2V00UDqMTe-61" value="Shopping Cart" style="ellipse;whiteSpace=wrap;html=1;" vertex="1" parent="1">
          <mxGeometry x="300" y="550" width="140" height="70" as="geometry" />
        </mxCell>
        <mxCell id="CfPCjCr6cY2V00UDqMTe-63" value="" style="endArrow=none;html=1;rounded=0;" edge="1" parent="1">
          <mxGeometry relative="1" as="geometry">
            <mxPoint x="110" y="640" as="sourcePoint" />
            <mxPoint x="270" y="640" as="targetPoint" />
          </mxGeometry>
        </mxCell>
      </root>
    </mxGraphModel>
  </diagram>
</mxfile>
